<svg width="592" height="336" viewBox="0 0 592 336" fill="none" xmlns="http://www.w3.org/2000/svg">
<path d="M591.089 280.546L591.08 280.71C590.836 285.474 590.195 289.975 589.257 294.208C584.296 316.602 571.354 330.909 568.126 334.375L568.119 334.382C567.682 334.853 567.414 335.122 567.38 335.191C553.356 335.191 462.695 335.207 359.38 335.178C331.531 335.171 302.765 335.16 274.329 335.142C261.416 335.135 248.573 335.128 235.915 335.119C226.698 335.113 217.58 335.104 208.607 335.097C174.544 335.068 142.553 335.03 115.117 334.98C100.43 334.953 87.0491 334.924 75.3504 334.888C44.2004 334.801 25.0043 334.689 24.9463 334.543L24.9125 334.443C24.9125 334.443 24.8836 334.413 24.8814 334.382L24.8789 334.375C24.8789 334.342 24.8431 334.306 24.8431 334.306C24.7604 334.113 6.81447 309.286 1.47907 275.225C0.242654 267.326 -0.317542 258.932 0.181952 250.234V250.097C2.05002 218.016 18.2894 181.86 67.9185 151.173C115.341 121.811 64.9283 102.442 102.636 69.7495C127.535 48.1981 153.747 52.7311 180.685 57.2641C200.639 60.6207 220.993 63.9796 241.504 56.733C249.997 53.7103 258.558 48.8838 267.119 41.4759C271.942 37.297 277.208 33.6266 282.845 30.4986C283.73 29.9899 284.579 29.5127 285.462 29.0712C288.859 27.3055 292.358 25.7079 295.994 24.2805C298.404 23.3282 300.883 22.4454 303.399 21.6297C307.406 20.3055 311.516 19.1829 315.696 18.2664C321.64 16.9063 327.789 15.9203 334.038 15.2414C336.757 14.9344 339.51 14.6969 342.294 14.5266C393.308 11.3089 450.391 28.3138 482.858 53.8694C484.659 55.2856 486.381 56.7285 488.025 58.1962C488.706 58.8057 489.647 59.6908 490.758 60.8358C498.336 68.647 513.766 88.5268 507.396 115.409C506.852 117.701 506.151 120.047 505.273 122.438C504.014 125.862 502.394 129.382 500.356 132.992C497.198 138.598 497.673 144.104 500.526 149.679L500.558 149.712H500.56C500.717 150.012 500.88 150.313 501.05 150.613C501.646 151.664 502.327 152.717 503.084 153.772C503.514 154.377 503.971 154.98 504.453 155.583C504.572 155.733 504.692 155.883 504.816 156.036C505.062 156.338 505.313 156.638 505.57 156.941V156.943C505.777 157.185 505.985 157.425 506.198 157.667C506.408 157.909 506.623 158.151 506.845 158.395C507.065 158.637 507.286 158.877 507.512 159.119C507.736 159.361 507.965 159.603 508.198 159.847C508.431 160.089 508.666 160.331 508.903 160.573C509.141 160.815 509.383 161.057 509.627 161.299H509.629C513.728 165.37 514.859 170.504 515.921 176.502C516.335 178.839 516.739 181.311 517.305 183.899C517.33 184.013 517.357 184.13 517.381 184.246C517.867 186.427 518.474 188.69 519.303 191.029C519.341 191.143 519.384 191.26 519.426 191.376C520.161 193.409 521.066 195.499 522.208 197.644C522.314 197.843 522.421 198.043 522.533 198.242V198.244C522.618 198.403 522.706 198.56 522.797 198.719C522.862 198.836 522.927 198.95 522.995 199.067C523.107 199.264 523.223 199.461 523.342 199.658L523.344 199.663C523.391 199.743 523.44 199.828 523.494 199.911C524.309 201.271 525.23 202.652 526.269 204.05C526.722 204.664 527.199 205.282 527.701 205.903C530.379 209.222 533.739 212.643 537.986 216.148C543.581 220.768 550.72 225.536 559.872 230.421C561.328 231.199 562.732 231.987 564.081 232.785C576.803 240.303 584.775 248.656 587.626 258.083C588.03 259.414 588.711 262.015 589.367 265.141C590.372 269.932 591.315 275.959 591.089 280.546Z" fill="#EBF3FA"/>
<path d="M591.067 280.542C591.074 280.598 591.076 280.654 591.08 280.71C590.836 285.474 590.196 289.975 589.257 294.208L564.081 298.159L558.884 298.974L555.928 299.438L535.444 302.653L533.612 302.94L529.493 303.588L528.422 303.756H528.415C528.415 303.756 527.533 303.859 526.001 304.005C525.873 304.018 525.738 304.029 525.602 304.043C524.583 304.137 523.319 304.247 521.87 304.356C521.326 304.399 520.755 304.439 520.161 304.48C520.049 304.486 519.937 304.495 519.823 304.502C518.992 304.558 518.121 304.61 517.211 304.661C515.339 304.762 513.318 304.849 511.215 304.901C510.398 304.921 509.567 304.937 508.729 304.948C508.292 304.952 507.851 304.955 507.409 304.955C506.879 304.957 506.346 304.957 505.81 304.952C505.02 304.948 504.224 304.934 503.431 304.914C502.849 304.901 502.264 304.883 501.684 304.863C500.874 304.831 500.065 304.791 499.261 304.744C499.138 304.737 499.014 304.728 498.891 304.719C498.517 304.697 498.143 304.672 497.771 304.643C495.926 304.504 494.125 304.314 492.411 304.061C492.122 304.018 491.838 303.973 491.556 303.926C485.111 302.873 480.078 300.863 478.92 297.264C477.868 293.968 480.143 289.278 487.651 282.756C488.901 281.671 490.205 280.631 491.556 279.639C500.269 273.23 510.996 268.688 522.235 265.482C522.701 265.347 523.167 265.217 523.635 265.09C523.707 265.07 523.779 265.049 523.85 265.029C523.978 264.996 524.106 264.96 524.233 264.926C524.486 264.857 524.739 264.79 524.99 264.725C525.434 264.606 525.877 264.489 526.323 264.377C528.567 263.804 530.825 263.281 533.083 262.806C533.652 262.685 534.221 262.569 534.79 262.455C535.056 262.401 535.323 262.347 535.587 262.296C535.771 262.257 535.955 262.222 536.138 262.188C536.418 262.134 536.698 262.08 536.978 262.029C546.386 260.252 555.701 259.23 564.081 258.668C573.517 258.031 581.769 257.98 587.626 258.083C588.303 259.719 588.881 262.213 589.367 265.141C590.135 269.742 590.686 275.42 591.067 280.542Z" fill="#A8D29F"/>
<path d="M308.391 68.7479C308.391 68.7479 315.635 53.7618 332.956 55.4267C332.956 55.4267 358.103 30.4515 384.919 52.097C384.919 52.097 413.424 46.7349 434.533 56.742C448.608 63.4127 453.258 70.4127 453.258 70.4127L308.391 68.7479Z" fill="#F8FCFF"/>
<path d="M283.031 202.076C283.031 202.076 292.811 185.116 316.195 187C316.195 187 350.147 158.733 386.353 183.231C386.353 183.231 424.836 177.161 453.339 188.488C472.342 196.039 478.618 203.96 478.618 203.96L283.031 202.076Z" fill="#F8FCFF"/>
<path d="M444.171 127.24C444.171 127.24 436.775 114.562 419.115 117.701C401.454 120.84 406.153 141.253 396.381 150.851C386.606 160.445 378.083 168.996 382.281 182.55C386.476 196.107 364.191 199.004 364.256 219.475C364.321 239.944 369.083 252.011 396.477 253.604C423.873 255.197 467.692 247.955 473.625 239.698C479.559 231.441 478.562 213.313 463.662 190.182C448.765 167.051 462.377 164.976 452.42 151.581C442.462 138.188 449.473 132.757 444.171 127.24Z" fill="#79B27F"/>
<path d="M111.174 106.069C111.174 106.069 117.604 94.9173 132.981 96.1565C132.981 96.1565 155.305 77.5696 179.111 93.6782C179.111 93.6782 204.416 89.6875 223.157 97.1357C235.653 102.101 239.779 107.309 239.779 107.309L111.174 106.069Z" fill="#F8FCFF"/>
<path d="M316.816 297.928H311.617L312.737 150.47H315.371L316.816 297.928Z" fill="#739AF0"/>
<path d="M313.729 151.256L275.929 183.637L261.237 196.223L260.124 195.098L273.133 180.668L294.441 157.028L311.283 148.202L313.729 151.256Z" fill="#7FAAF7"/>
<path d="M275.929 183.637L261.237 196.223L260.124 195.098L273.133 180.668L275.929 183.637Z" fill="#F99746"/>
<path d="M316.296 149.074L312.607 150.384L294.074 103.114L287.372 86.0217L288.801 85.3405L297.792 101.702L313.487 130.263L316.296 149.074Z" fill="#7FAAF7"/>
<path d="M297.792 101.702L294.074 103.114L287.372 86.0217L288.801 85.3405L297.792 101.702Z" fill="#F99746"/>
<path d="M383.134 151.633L358.466 153.338L332.011 155.168L313.767 149.813L314.13 145.914L357.337 148.504L383.114 150.048L383.134 151.633Z" fill="#7FAAF7"/>
<path d="M383.134 151.632L357.584 153.398L357.337 148.504L383.114 150.048L383.134 151.632Z" fill="#F99746"/>
<path d="M313.966 145.417C312.096 145.305 310.488 146.732 310.376 148.603C310.264 150.474 311.691 152.083 313.561 152.195C315.431 152.307 317.039 150.88 317.151 149.009C317.263 147.138 315.839 145.529 313.966 145.417Z" fill="#2B478B"/>
<path d="M140.014 334.27H268.618L322.232 334.236H419.185C419.185 334.236 419.241 334.138 419.351 333.943C419.427 333.804 419.532 333.618 419.669 333.381L419.723 333.311C419.723 333.311 419.723 333.311 419.723 333.275C419.723 333.275 419.774 333.237 419.774 333.203C419.989 332.919 420.148 332.596 420.363 332.209C420.471 332.029 420.576 331.814 420.739 331.601C420.739 331.568 420.739 331.568 420.739 331.53C420.791 331.494 420.791 331.494 420.791 331.494C421.526 330.223 422.437 328.57 423.488 326.571C423.584 326.389 423.678 326.208 423.777 326.022C424.301 324.512 424.876 322.822 425.49 320.96C426.948 316.438 428.622 310.922 430.257 304.695C430.897 302.237 431.538 299.675 432.145 297.005C432.501 295.463 432.859 293.859 433.202 292.238C433.301 291.761 433.399 291.286 433.496 290.811C434.125 287.777 434.716 284.649 435.249 281.454C436.298 275.2 437.126 268.682 437.592 262.074C395.948 264.22 315.673 269.874 255.293 283.363C170.092 302.4 149.037 305.472 112.943 308.889C92.7447 310.798 115.792 323.476 140.014 334.27Z" fill="#D4DFFF"/>
<path d="M194.171 313.655C194.171 313.655 332.161 271.61 366.906 268.565C401.653 265.52 368.367 272.637 368.367 272.637C368.367 272.637 273.931 297.213 251.98 307.695C205.561 329.86 194.171 313.655 194.171 313.655Z" fill="#D4DFFF"/>
<path d="M235.851 333.067C235.851 333.067 350.855 280.226 381.976 271.639C413.095 263.053 383.981 275.054 383.981 275.054C383.981 275.054 293.176 322.423 274.155 334.382C271.402 336.114 235.851 333.067 235.851 333.067Z" fill="#D4DFFF"/>
<path d="M213.75 275.789L214.395 168.776L189.528 192.801L179.405 202.555L178.556 201.807L187.388 190.762L201.827 172.684L213.035 165.922C213.002 165.888 213.002 165.888 213.002 165.854C213.002 165.31 213.205 164.835 213.476 164.427L199.211 133.536L193.604 121.439L194.59 120.861L201.827 132.347L214.462 152.397L216.874 163.746H265.892L265.961 164.902L247.482 167.282L229.001 169.693L217.622 167.078C217.349 167.587 216.874 167.961 216.332 168.165L217.145 273.41C215.958 273.988 214.802 274.77 213.75 275.789Z" fill="#CCDBFD"/>
<path d="M475.048 291.855H468.427L469.851 85.2756H473.209L475.048 291.855Z" fill="#739AF0"/>
<path d="M470.413 78.6945L498.828 22.0264L509.873 1.52588e-05L511.732 0.770836L503.575 24.1327L490.212 62.3999L474.792 81.0719L470.413 78.6945Z" fill="#83AFFC"/>
<path d="M498.829 22.0263L509.873 -4.3869e-05L511.732 0.770777L503.575 24.1326L498.829 22.0263Z" fill="#F99746"/>
<path d="M468.476 82.5216L472.16 79.1628L517.225 125.517L533.518 142.277L532.178 143.781L513.556 129.008L481.046 103.222L468.476 82.5216Z" fill="#83AFFC"/>
<path d="M513.556 129.008L517.225 125.517L533.518 142.277L532.178 143.781L513.556 129.008Z" fill="#F99746"/>
<path d="M388.743 112.496L416.862 98.321L447.02 83.1199L471.079 80.4064L472.577 85.1612L420.569 103.439L389.547 114.344L388.743 112.496Z" fill="#83AFFC"/>
<path d="M388.743 112.496L417.868 97.8146L420.569 103.439L389.547 114.344L388.743 112.496Z" fill="#F99746"/>
<path d="M473.012 85.6654C475.265 84.8744 476.448 82.4073 475.657 80.1532C474.866 77.9012 472.4 76.7159 470.147 77.5069C467.896 78.3001 466.713 80.7671 467.504 83.0191C468.294 85.271 470.761 86.4563 473.012 85.6654Z" fill="#2B478B"/>
<path d="M374.103 303.191C374.103 303.191 346.33 294.934 330.071 305.053C313.81 315.175 323.43 326.822 304.192 325.809C284.955 324.796 275.337 323.824 274.325 335.198H359.371L374.103 303.191Z" fill="#A8D29F"/>
<path d="M491.558 204.068V334.998H398.213V204.068H491.558Z" fill="#F9DDBF"/>
<path d="M564.083 207.552V334.987H491.556V204.05H560.922C562.011 205.206 563.064 206.362 564.083 207.552Z" fill="#FFF3E9"/>
<path d="M509.627 161.299L502.258 176.491L498.997 183.184L498.894 183.458L498.757 183.695L498.656 183.899L498.486 184.24L498.419 184.408L495.191 191.036L495.021 191.376L494.613 192.259L488.872 204.05L487.549 206.804L485.68 210.609L484.695 212.648H391.787L398.206 204.323L398.41 204.05L440.193 149.95L440.226 149.916H443.898L500.558 149.712C502.562 153.553 505.723 157.427 509.627 161.299Z" fill="#ED9F4A"/>
<path d="M491.558 212.031V222.919L398.213 226.865V212.663H395.449L443.893 149.903L491.558 212.031Z" fill="#F9DDBF"/>
<path d="M444.726 181.168H442.775C436.145 181.168 430.772 186.545 430.772 193.176V223.69H456.34V192.786C456.34 186.371 451.141 181.168 444.726 181.168Z" fill="#EFCDAF"/>
<path d="M572.592 216.148H489.84L485.663 210.609L480.737 204.05L441.978 152.363L440.177 149.95L439.973 149.679H522.724L522.928 149.95L524.728 152.363L563.49 204.05L568.413 210.609L572.592 216.148Z" fill="#FFB700"/>
<path d="M433.764 230.258L411.99 275.104H345.838L380.327 230.421L433.764 230.258Z" fill="#ED9F4A"/>
<path d="M435.747 230.258L413.973 275.104H347.82L382.307 230.421L435.747 230.258Z" fill="#F9DDBF"/>
<path d="M413.827 275.104V334.875L347.82 335.003V275.104H413.827Z" fill="#F9DDBF"/>
<path d="M469.721 275.104V334.875H413.827V275.104H469.721Z" fill="#FFF3E9"/>
<path d="M475.865 277.754H415.819L380.325 230.419L398.213 230.423L439.34 230.432L475.865 277.754Z" fill="#FFB700"/>
<path d="M377.205 255.318C377.205 253.593 378.603 252.197 380.327 252.197C382.05 252.197 383.448 253.593 383.448 255.318C383.448 257.041 382.05 258.439 380.327 258.439C378.603 258.439 377.205 257.041 377.205 255.318Z" fill="#EFCDAF"/>
<path d="M505.718 205.903H551.148L527.181 176.502H481.752L505.718 205.903Z" fill="#1B3A4B"/>
<path d="M487.94 184.246H533.37L533.088 183.901H487.658L487.94 184.246Z" fill="#AEC3FF"/>
<path d="M516.503 176.5L540.468 205.903H540.815L516.848 176.5H516.503Z" fill="#AEC3FF"/>
<path d="M504.466 176.5L528.433 205.903H528.778L504.811 176.5H504.466Z" fill="#AEC3FF"/>
<path d="M492.884 176.5L516.851 205.903H517.196L493.231 176.5H492.884Z" fill="#AEC3FF"/>
<path d="M493.876 191.376H539.306L539.023 191.029H493.594L493.876 191.376Z" fill="#AEC3FF"/>
<path d="M500.143 199.067H545.575L545.293 198.722H499.863L500.143 199.067Z" fill="#AEC3FF"/>
<path d="M524.065 185.512L524.327 184.098L521.756 182.68L521.496 184.098L524.065 185.512Z" fill="#AEC3FF"/>
<path d="M512.158 185.512L512.42 184.098L509.849 182.68L509.589 184.098L512.158 185.512Z" fill="#AEC3FF"/>
<path d="M500.403 185.512L500.665 184.098L498.094 182.68L497.834 184.098L500.403 185.512Z" fill="#AEC3FF"/>
<path d="M529.858 192.62L530.118 191.204L527.548 189.788L527.286 191.204L529.858 192.62Z" fill="#AEC3FF"/>
<path d="M517.95 192.62L518.21 191.204L515.641 189.788L515.379 191.204L517.95 192.62Z" fill="#AEC3FF"/>
<path d="M506.195 192.62L506.455 191.204L503.886 189.788L503.624 191.204L506.195 192.62Z" fill="#AEC3FF"/>
<path d="M536.125 200.31L536.387 198.894L533.818 197.478L533.556 198.894L536.125 200.31Z" fill="#AEC3FF"/>
<path d="M524.218 200.31L524.48 198.894L521.911 197.478L521.648 198.894L524.218 200.31Z" fill="#AEC3FF"/>
<path d="M512.463 200.31L512.725 198.894L510.156 197.478L509.893 198.894L512.463 200.31Z" fill="#AEC3FF"/>
<path d="M419.967 268.639H461.131L439.416 241.997H398.251L419.967 268.639Z" fill="#1B3A4B"/>
<path d="M403.857 249.015H445.022L444.767 248.701H403.602L403.857 249.015Z" fill="#AEC3FF"/>
<path d="M429.739 241.997L451.455 268.639H451.769L430.053 241.997H429.739Z" fill="#AEC3FF"/>
<path d="M418.833 241.997L440.549 268.639H440.86L419.147 241.997H418.833Z" fill="#AEC3FF"/>
<path d="M408.337 241.997L430.053 268.639H430.367L408.651 241.997H408.337Z" fill="#AEC3FF"/>
<path d="M409.235 255.475H450.4L450.145 255.161H408.98L409.235 255.475Z" fill="#AEC3FF"/>
<path d="M414.916 262.443H456.08L455.825 262.13H414.66L414.916 262.443Z" fill="#AEC3FF"/>
<path d="M436.591 250.162L436.828 248.88L434.499 247.596L434.262 248.88L436.591 250.162Z" fill="#AEC3FF"/>
<path d="M425.802 250.162L426.039 248.88L423.709 247.596L423.474 248.88L425.802 250.162Z" fill="#AEC3FF"/>
<path d="M415.151 250.162L415.388 248.88L413.059 247.596L412.821 248.88L415.151 250.162Z" fill="#AEC3FF"/>
<path d="M441.839 256.602L442.076 255.318L439.747 254.034L439.51 255.318L441.839 256.602Z" fill="#AEC3FF"/>
<path d="M431.05 256.602L431.287 255.318L428.958 254.034L428.722 255.318L431.05 256.602Z" fill="#AEC3FF"/>
<path d="M420.399 256.602L420.636 255.318L418.307 254.034L418.07 255.318L420.399 256.602Z" fill="#AEC3FF"/>
<path d="M447.519 263.571L447.757 262.287L445.427 261.003L445.19 262.287L447.519 263.571Z" fill="#AEC3FF"/>
<path d="M436.73 263.571L436.967 262.287L434.638 261.003L434.401 262.287L436.73 263.571Z" fill="#AEC3FF"/>
<path d="M426.079 263.571L426.315 262.287L423.987 261.003L423.75 262.287L426.079 263.571Z" fill="#AEC3FF"/>
<path d="M180.717 334.27C180.703 334.308 180.69 334.344 180.676 334.382H24.8815L24.879 334.375C24.879 334.342 24.8434 334.306 24.8434 334.306C24.7603 334.113 6.81434 309.286 1.47916 275.225C5.37857 273.725 19.1471 269.069 38.5176 269.573C39.2971 269.594 40.0856 269.623 40.883 269.661C48.0304 269.995 55.8857 271.046 64.2474 273.203C64.5408 273.28 64.8363 273.356 65.1322 273.434C65.2148 273.457 65.2977 273.479 65.3808 273.501C65.9721 273.66 66.5632 273.824 67.1593 273.994C67.8268 274.185 68.494 274.382 69.1682 274.586C69.4081 274.66 69.6498 274.734 69.8919 274.808C70.7832 275.086 71.6791 275.377 72.5818 275.679C83.1048 279.222 89.634 283.04 94.1788 286.731C94.2728 286.807 94.3669 286.883 94.4612 286.959C96.6426 288.763 98.3606 290.535 99.8457 292.227C100.251 292.689 100.641 293.144 101.017 293.592C101.483 294.15 101.931 294.696 102.37 295.232C103.842 297.029 105.201 298.687 106.796 300.135C111.195 304.139 117.379 306.559 132.629 305.952C135.364 305.842 137.977 305.817 140.475 305.871C173.265 306.554 185.733 320.613 180.717 334.27Z" fill="#A8D29F"/>
<path d="M591.089 280.546L591.067 280.542C585.089 279.347 575.701 277.909 564.081 277.564C556.882 277.349 548.823 277.553 540.188 278.494C539.883 278.527 539.577 278.561 539.27 278.595C538.369 278.7 537.462 278.81 536.548 278.931C534.555 279.191 532.532 279.493 530.487 279.838H530.48C529.871 279.941 529.266 280.047 528.653 280.159C527.996 280.275 527.338 280.398 526.677 280.526C525.261 280.799 523.832 281.095 522.394 281.413C521.763 281.552 521.129 281.698 520.493 281.848C519.857 281.994 519.22 282.148 518.58 282.305C517.805 282.498 517.028 282.695 516.248 282.899H516.246C516.004 282.964 515.76 283.029 515.518 283.094H515.516C514.801 283.287 514.084 283.484 513.365 283.688C510.46 284.51 507.524 285.431 504.569 286.46C499.718 288.136 495.408 289.787 491.556 291.396C486.666 293.433 482.511 295.402 478.92 297.264C475.375 299.097 472.364 300.838 469.721 302.463C455.404 311.264 451.878 316.696 432.349 315.175C430.608 315.042 428.942 314.989 427.345 315.011C422.113 315.078 417.637 315.923 413.827 317.225C406.189 319.833 401.228 324.285 398.211 328.001C395.725 331.061 394.555 333.62 394.293 334.234C394.253 334.326 394.235 334.375 394.235 334.375H398.211H413.827H469.721H491.556H497.131H501.044H549.123H553.036H564.081H568.126C571.354 330.909 584.296 316.602 589.257 294.208C590.196 289.975 590.836 285.474 591.08 280.71L591.089 280.546Z" fill="#A8D29F"/>
<path d="M80.7659 187.621C80.7659 187.621 84.5199 180.596 93.4971 181.376C93.4971 181.376 106.53 169.668 120.429 179.814C120.429 179.814 135.203 177.302 146.144 181.992C153.439 185.12 155.848 188.401 155.848 188.401L80.7659 187.621Z" fill="#F8FCFF"/>
<path d="M220.854 127.081C220.854 127.081 223.963 120.401 231.398 121.143C231.398 121.143 242.192 110.009 253.7 119.657C253.7 119.657 265.934 117.266 274.995 121.728C281.036 124.703 283.031 127.823 283.031 127.823L220.854 127.081Z" fill="#F8FCFF"/>
<path d="M89.9946 333.293L98.867 333.183L119.588 246.808L110.716 246.92L89.9946 333.293Z" fill="#1D3F77"/>
<path d="M75.3373 335.216H115.124C115.124 332.888 113.237 330.999 110.91 330.999H79.5523C77.2244 330.999 75.3373 332.888 75.3373 335.216Z" fill="#1D3F77"/>
<path d="M167.247 295.223L163.425 276.058L163.417 276.018L150.7 212.233L27.0888 212.251L43.636 295.241L67.1153 295.239H67.3362L93.6127 295.234H93.6929L119.855 295.232L120.034 295.23L146.138 295.228H146.375L167.247 295.223Z" fill="#1D3F77"/>
<path d="M169.364 293.583L45.7531 293.601L29.2062 212.251L152.817 212.233L169.364 293.583Z" fill="#1B3A4B"/>
<path d="M69.469 293.599H69.2325L52.7299 212.466H52.9664L69.469 293.599Z" fill="#C0D8FB"/>
<path d="M95.81 293.594H95.5735L79.0709 212.464H79.3074L95.81 293.594Z" fill="#C0D8FB"/>
<path d="M122.151 293.59H121.914L105.412 212.459H105.648L122.151 293.59Z" fill="#C0D8FB"/>
<path d="M148.492 293.587H148.256L131.753 212.455H131.99L148.492 293.587Z" fill="#C0D8FB"/>
<path d="M156.744 231.539L33.1332 231.557L33.0879 231.335L156.699 231.317L156.744 231.539Z" fill="#C0D8FB"/>
<path d="M161.143 253.169L37.5323 253.185L37.4872 252.963L161.098 252.945L161.143 253.169Z" fill="#C0D8FB"/>
<path d="M165.542 274.797L41.9316 274.812L41.8864 274.59L165.497 274.573L165.542 274.797Z" fill="#C0D8FB"/>
<path d="M57.1945 233.834L54.1635 231.443L56.2217 229.052L59.2527 231.443L57.1945 233.834Z" fill="#C0D8FB"/>
<path d="M61.6164 255.573L58.5854 253.182L60.6436 250.792L63.6746 253.182L61.6164 255.573Z" fill="#C0D8FB"/>
<path d="M83.6537 233.832L80.6227 231.441L82.681 229.048L85.712 231.438L83.6537 233.832Z" fill="#C0D8FB"/>
<path d="M88.0757 255.569L85.0447 253.178L87.1029 250.787L90.1339 253.178L88.0757 255.569Z" fill="#C0D8FB"/>
<path d="M109.995 233.827L106.964 231.436L109.022 229.045L112.053 231.436L109.995 233.827Z" fill="#C0D8FB"/>
<path d="M136.099 233.823L133.068 231.432L135.126 229.041L138.158 231.432L136.099 233.823Z" fill="#C0D8FB"/>
<path d="M65.9929 277.091L62.9619 274.7L65.0201 272.307L68.0511 274.698L65.9929 277.091Z" fill="#C0D8FB"/>
<path d="M92.4522 277.087L89.4211 274.696L91.4794 272.305L94.5104 274.696L92.4522 277.087Z" fill="#C0D8FB"/>
<path d="M118.793 277.082L115.762 274.691L117.82 272.3L120.851 274.691L118.793 277.082Z" fill="#C0D8FB"/>
<path d="M144.898 277.08L141.867 274.689L143.925 272.296L146.956 274.687L144.898 277.08Z" fill="#C0D8FB"/>
<path d="M140.521 255.562L137.49 253.171L139.548 250.78L142.579 253.171L140.521 255.562Z" fill="#C0D8FB"/>
<path d="M114.417 255.567L111.386 253.176L113.444 250.783L116.475 253.174L114.417 255.567Z" fill="#C0D8FB"/>
<path d="M218.666 333.896L224.759 333.82L238.984 274.517L232.892 274.593L218.666 333.896Z" fill="#1D3F77"/>
<path d="M208.602 335.216H235.92C235.92 333.618 234.623 332.321 233.026 332.321H211.496C209.899 332.321 208.602 333.618 208.602 335.216Z" fill="#1D3F77"/>
<path d="M271.707 307.758L269.081 294.6L269.077 294.571L260.346 250.78L175.477 250.792L186.837 307.771L202.958 307.769H203.11L221.15 307.767H221.206L239.168 307.764L239.291 307.762L257.212 307.76H257.376L271.707 307.758Z" fill="#1D3F77"/>
<path d="M273.158 306.633L188.291 306.644L176.93 250.792L261.797 250.78L273.158 306.633Z" fill="#1B3A4B"/>
<path d="M204.573 306.642H204.411L193.082 250.94H193.243L204.573 306.642Z" fill="#C0D8FB"/>
<path d="M222.66 306.64H222.496L211.167 250.937H211.328L222.66 306.64Z" fill="#C0D8FB"/>
<path d="M240.745 306.637H240.581L229.252 250.935H229.413L240.745 306.637Z" fill="#C0D8FB"/>
<path d="M258.829 306.635H258.666L247.337 250.933H247.498L258.829 306.635Z" fill="#C0D8FB"/>
<path d="M264.494 264.034L179.626 264.048L179.596 263.893L264.463 263.882L264.494 264.034Z" fill="#C0D8FB"/>
<path d="M267.516 278.884L182.647 278.897L182.616 278.743L267.484 278.731L267.516 278.884Z" fill="#C0D8FB"/>
<path d="M270.535 293.733L185.668 293.744L185.637 293.592L270.504 293.581L270.535 293.733Z" fill="#C0D8FB"/>
<path d="M196.146 265.61L194.065 263.969L195.479 262.327L197.56 263.967L196.146 265.61Z" fill="#C0D8FB"/>
<path d="M199.181 280.535L197.1 278.895L198.514 277.252L200.595 278.893L199.181 280.535Z" fill="#C0D8FB"/>
<path d="M214.312 265.607L212.231 263.965L213.644 262.325L215.725 263.965L214.312 265.607Z" fill="#C0D8FB"/>
<path d="M217.349 280.533L215.268 278.89L216.682 277.25L218.762 278.89L217.349 280.533Z" fill="#C0D8FB"/>
<path d="M232.399 265.605L230.316 263.963L231.729 262.32L233.81 263.963L232.399 265.605Z" fill="#C0D8FB"/>
<path d="M250.32 265.603L248.239 263.96L249.653 262.318L251.733 263.96L250.32 265.603Z" fill="#C0D8FB"/>
<path d="M202.187 295.308L200.106 293.666L201.52 292.026L203.601 293.666L202.187 295.308Z" fill="#C0D8FB"/>
<path d="M220.353 295.306L218.272 293.664L219.685 292.021L221.766 293.664L220.353 295.306Z" fill="#C0D8FB"/>
<path d="M238.44 295.304L236.357 293.661L237.77 292.019L239.851 293.661L238.44 295.304Z" fill="#C0D8FB"/>
<path d="M256.361 295.302L254.28 293.659L255.694 292.017L257.774 293.659L256.361 295.302Z" fill="#C0D8FB"/>
<path d="M253.357 280.528L251.276 278.886L252.688 277.243L254.768 278.886L253.357 280.528Z" fill="#C0D8FB"/>
<path d="M235.434 280.531L233.353 278.888L234.766 277.248L236.847 278.888L235.434 280.531Z" fill="#C0D8FB"/>
<path d="M516.497 318.959C516.927 318.959 517.278 318.61 517.278 318.177C517.278 308.477 509.387 300.583 499.691 300.583C497.451 300.583 495.272 301 493.211 301.818C492.81 301.977 492.615 302.432 492.772 302.833C492.933 303.231 493.386 303.431 493.789 303.272C495.664 302.526 497.65 302.147 499.691 302.147C508.527 302.147 515.715 309.337 515.715 318.177C515.715 318.61 516.064 318.959 516.497 318.959Z" fill="#2C3A64"/>
<path d="M530.592 281.026C530.592 281.026 529.401 283.506 527.895 286.944C526.207 290.795 524.121 295.853 522.88 299.965C522.224 302.14 521.803 304.049 521.803 305.378C521.801 305.833 523.559 307.684 524.065 308.39C527.266 312.846 531.638 318.798 531.638 318.798L532.83 318.498C532.83 318.498 531.159 311.056 528.724 307.339C528.245 306.608 526.896 305.719 526.961 305.638L526.964 305.636C527.172 305.374 527.698 304.713 528.413 303.769C530.386 301.172 533.813 296.435 536.109 292.03C536.252 291.757 536.391 291.483 536.523 291.21C537.735 288.752 538.533 286.448 538.454 284.741L530.592 281.026Z" fill="#E8945B"/>
<path d="M533.889 318.787L533.067 319.306C532.765 319.436 532.512 319.486 532.207 319.627C531.741 319.842 531.656 320.142 531.643 320.207L531.641 320.221L528.151 322.428C527.985 322.358 527.884 322.015 527.833 321.749C527.797 321.57 527.848 321.381 527.969 321.245C528.272 320.902 528.941 320.346 529.226 319.318C529.387 318.74 530.252 316.92 530.252 316.92L530.258 316.913C530.29 316.895 530.469 316.846 531.473 316.985C531.992 317.055 532.133 316.001 532.133 316.001C532.133 316.001 532.299 316.024 532.485 316.138C532.633 316.23 532.794 316.38 532.899 316.627C533.045 316.974 533.582 317.453 533.966 317.763C534.198 317.951 534.375 318.079 534.375 318.079C534.375 318.079 534.539 318.251 533.889 318.787Z" fill="#B84C42"/>
<path d="M532.485 316.138C532.375 316.402 532.133 316.936 531.882 317.144C531.542 317.429 530.252 316.92 530.252 316.92L530.259 316.913C530.29 316.895 530.469 316.846 531.473 316.985C531.992 317.054 532.133 316.001 532.133 316.001C532.133 316.001 532.299 316.024 532.485 316.138Z" fill="#AA3E39"/>
<path d="M533.889 318.787L533.067 319.306C532.765 319.436 532.512 319.486 532.207 319.627C531.741 319.842 531.656 320.142 531.643 320.207L531.641 320.221L528.151 322.428C527.985 322.358 527.884 322.015 527.833 321.749C527.88 321.588 528.227 322.074 528.337 322.116C528.447 322.159 531.202 320.344 531.287 320.124C531.374 319.907 531.728 319.396 532.503 319.129C533.177 318.899 533.813 317.993 533.966 317.763C534.199 317.951 534.376 318.079 534.376 318.079C534.376 318.079 534.539 318.251 533.889 318.787Z" fill="#AA3E39"/>
<path d="M529.589 320.983L538.958 291.665L537.377 291.158L528.008 320.478L529.589 320.983Z" fill="#F99746"/>
<path d="M530.375 321.065L552.492 319.141L511.475 291.4L513.822 296.207L547.685 317.893L530.232 319.412L530.375 321.065Z" fill="#F99746"/>
<path d="M527.394 319.766L528.789 318.867L511.77 291.595L509.79 293.648L527.394 319.766Z" fill="#F99746"/>
<path d="M525.071 315.878L521.958 317.675C521.592 317.886 521.467 318.359 521.678 318.724C521.888 319.091 522.361 319.217 522.726 319.006L525.839 317.207C526.204 316.996 526.332 316.523 526.119 316.158C525.909 315.793 525.436 315.665 525.071 315.878Z" fill="#1B3A4B"/>
<path d="M524.455 317.037L528.379 321.381L528.742 321.068L524.816 316.723L524.455 317.037Z" fill="#1B3A4B"/>
<path d="M537.095 302.151C537.328 302.234 537.585 302.207 537.798 302.08C545.259 297.571 555.578 299.265 558.564 299.89L558.571 299.893C558.734 299.926 558.889 299.801 558.889 299.633V299.05C558.889 298.604 558.562 298.226 558.121 298.158C556.506 297.919 552.734 297.403 550.626 297.394C550.568 297.392 550.512 297.392 550.456 297.392C545.732 297.392 541.655 298.239 538.304 299.908C537.619 300.251 536.826 300.298 536.105 300.045L535.186 299.722C534.66 299.536 534.084 299.814 533.901 300.339C533.782 300.677 533.959 301.049 534.299 301.17L537.095 302.151Z" fill="#35488B"/>
<path d="M544.027 290.789C544.027 290.789 544.327 289.429 543.474 289.337C542.623 289.245 539.512 289.913 538.683 289.821C537.854 289.729 533.522 289.014 532.761 289.751C532.001 290.491 532.324 291.136 533.845 291.273C535.365 291.412 537.393 291.665 537.968 292.149C538.544 292.633 542.715 294.062 544.027 290.789Z" fill="#1B3A4B"/>
<path d="M532.946 320.729C532.946 318.439 531.09 316.582 528.798 316.582C526.507 316.582 524.652 318.439 524.652 320.729C524.652 323.022 526.507 324.879 528.798 324.879C531.09 324.879 532.946 323.022 532.946 320.729Z" fill="#1B3A4B"/>
<path d="M551.367 318.426L555.975 305.58L555.63 305.454L551.02 318.3L551.367 318.426Z" fill="#1B3A4B"/>
<path d="M564.085 324.341L564.231 324.003L551.192 318.399L542.62 306.149L542.318 306.362L550.951 318.697L550.998 318.717L564.085 324.341Z" fill="#1B3A4B"/>
<path d="M556.241 332.713L556.591 332.596C556.499 332.318 551.459 319.047 551.244 318.482L551.112 318.137L542.99 330.987L543.301 331.185L551.029 318.959C552.877 323.819 556.172 332.502 556.241 332.713Z" fill="#1B3A4B"/>
<path d="M551.103 317.807L565.572 315.318L565.51 314.955L551.04 317.444L551.103 317.807Z" fill="#1B3A4B"/>
<path d="M549.974 317.592L550.326 317.476L546.086 304.753L545.736 304.869L549.974 317.592Z" fill="#1B3A4B"/>
<path d="M551.101 318.74L551.154 318.713L564.426 311.982L564.26 311.652L551.042 318.356L536.817 315.97L536.756 316.333L551.101 318.74Z" fill="#1B3A4B"/>
<path d="M545.716 332.251C545.794 332.02 549.201 323.638 551.107 318.948L558.472 330.539L558.783 330.342L551.036 318.148L550.901 318.477C550.68 319.024 545.461 331.857 545.367 332.135L545.716 332.251Z" fill="#1B3A4B"/>
<path d="M565.328 320.85L565.384 320.485L551.098 318.365L551.045 318.731L565.328 320.85Z" fill="#1B3A4B"/>
<path d="M551.947 316.64L559.874 307.513L559.594 307.271L551.67 316.398L551.947 316.64Z" fill="#1B3A4B"/>
<path d="M551.533 332.946L551.9 332.914L550.794 319.546L550.426 319.578L551.533 332.946Z" fill="#1B3A4B"/>
<path d="M539.196 326.721L551.822 317.962L551.611 317.66L538.985 326.419L539.196 326.721Z" fill="#1B3A4B"/>
<path d="M561.539 328.451L561.801 328.191L551.255 317.55V303.704H550.888V317.702L561.539 328.451Z" fill="#1B3A4B"/>
<path d="M553.791 318.549C553.791 317.045 552.572 315.829 551.072 315.829C549.571 315.829 548.352 317.045 548.352 318.549C548.352 320.05 549.571 321.267 551.072 321.267C552.572 321.267 553.791 320.05 553.791 318.549Z" fill="#2C3A64"/>
<path d="M564.625 320.745C564.504 321.5 564.32 322.233 564.081 322.943C563.984 323.232 563.877 323.519 563.758 323.799C563.711 323.913 563.664 324.025 563.613 324.138C563.03 325.442 562.249 326.64 561.306 327.691C561.225 327.783 561.142 327.875 561.057 327.965C560.32 328.749 559.491 329.444 558.589 330.035C558.488 330.105 558.385 330.17 558.28 330.235C557.594 330.658 556.871 331.023 556.114 331.326C555.999 331.371 555.883 331.413 555.769 331.456C554.532 331.908 553.215 332.186 551.844 332.262C551.721 332.269 551.598 332.276 551.475 332.278C551.34 332.283 551.206 332.285 551.069 332.285C549.354 332.285 547.66 331.964 546.077 331.346C545.962 331.301 545.848 331.256 545.734 331.207C545.181 330.974 544.643 330.705 544.123 330.4C544.043 330.353 543.964 330.306 543.886 330.255C543.781 330.192 543.678 330.127 543.575 330.058C542.072 329.078 540.773 327.808 539.758 326.331V326.329C539.684 326.228 539.617 326.127 539.552 326.024C539.426 325.836 539.308 325.643 539.193 325.448C538.298 323.911 537.715 322.21 537.471 320.447C537.395 319.9 537.35 319.349 537.343 318.793C537.339 318.71 537.339 318.63 537.339 318.547C537.339 317.837 537.393 317.14 537.498 316.459C537.516 316.335 537.536 316.214 537.558 316.093C537.805 314.733 538.253 313.44 538.871 312.248C539.167 311.677 539.5 311.128 539.872 310.606C540.748 309.373 541.821 308.291 543.048 307.404C543.149 307.332 543.25 307.263 543.351 307.193C544.184 306.624 545.082 306.144 546.034 305.768C546.146 305.723 546.26 305.678 546.377 305.636C547.786 305.123 549.304 304.834 550.886 304.813C550.946 304.811 551.009 304.811 551.069 304.811C551.132 304.811 551.193 304.811 551.255 304.813C552.769 304.834 554.225 305.1 555.585 305.573C555.701 305.613 555.818 305.656 555.932 305.701C557.157 306.165 558.297 306.801 559.328 307.579C559.426 307.652 559.523 307.729 559.619 307.805C561.106 308.992 562.34 310.478 563.232 312.172C563.29 312.282 563.346 312.392 563.4 312.501C563.662 313.035 563.89 313.586 564.081 314.153C564.193 314.48 564.291 314.812 564.376 315.15C564.408 315.269 564.437 315.387 564.464 315.508C564.686 316.485 564.802 317.503 564.802 318.547C564.802 319.168 564.762 319.779 564.679 320.38C564.663 320.503 564.645 320.624 564.625 320.745ZM564.081 309.34C561.191 305.264 556.436 302.597 551.069 302.597C545.691 302.597 540.927 305.275 538.038 309.367C537.659 309.904 537.312 310.465 537.001 311.049V311.052C535.805 313.288 535.126 315.838 535.126 318.547C535.126 318.693 535.128 318.84 535.133 318.986C535.146 319.54 535.191 320.091 535.265 320.64C535.538 322.726 536.223 324.74 537.283 326.562C538.663 328.933 540.64 330.918 543.004 332.307C544.881 333.412 546.966 334.113 549.123 334.375L549.179 334.382C549.804 334.458 550.435 334.496 551.069 334.496C551.714 334.496 552.353 334.458 552.978 334.382C552.998 334.38 553.018 334.378 553.036 334.375C557.587 333.813 561.55 331.326 564.081 327.754C565.929 325.153 567.015 321.975 567.015 318.547C567.015 315.119 565.929 311.941 564.081 309.34Z" fill="#202E51"/>
<path d="M564.271 320.693C564.22 321.027 564.155 321.357 564.081 321.682C563.922 322.365 563.711 323.031 563.454 323.669C563.407 323.783 563.36 323.895 563.31 324.008C562.757 325.282 562.009 326.457 561.108 327.492C561.028 327.584 560.945 327.676 560.86 327.767C560.145 328.545 559.339 329.24 558.459 329.831C558.356 329.901 558.253 329.968 558.15 330.033C557.484 330.456 556.779 330.822 556.04 331.124C555.925 331.171 555.811 331.216 555.695 331.259C554.481 331.718 553.184 332.007 551.831 332.092C551.71 332.103 551.584 332.11 551.461 332.112C551.291 332.121 551.121 332.123 550.948 332.123C549.248 332.123 547.622 331.808 546.124 331.229C546.009 331.187 545.895 331.14 545.781 331.093C545.143 330.828 544.531 330.515 543.946 330.158C543.841 330.093 543.738 330.028 543.635 329.961C542.141 328.993 540.851 327.736 539.843 326.271C539.771 326.17 539.704 326.067 539.637 325.964C538.578 324.33 537.861 322.455 537.59 320.438C537.518 319.896 537.478 319.342 537.473 318.782C537.471 318.735 537.471 318.688 537.471 318.641C537.471 317.906 537.529 317.187 537.644 316.483C537.664 316.36 537.684 316.239 537.708 316.118C537.962 314.782 538.412 313.516 539.03 312.351C539.33 311.784 539.671 311.24 540.047 310.724C540.918 309.526 541.984 308.475 543.198 307.619C543.299 307.547 543.4 307.478 543.503 307.41C544.321 306.866 545.199 306.409 546.128 306.052C546.242 306.008 546.357 305.965 546.473 305.925H546.475C547.857 305.436 549.34 305.167 550.886 305.161H550.948C551.051 305.161 551.154 305.163 551.255 305.165C552.725 305.197 554.136 305.468 555.455 305.936C555.571 305.976 555.686 306.019 555.8 306.066C556.976 306.519 558.071 307.135 559.061 307.885C559.16 307.957 559.256 308.033 559.352 308.112C560.797 309.266 561.998 310.711 562.869 312.356C562.927 312.465 562.983 312.575 563.037 312.685C563.433 313.487 563.754 314.334 563.984 315.217C564.016 315.336 564.047 315.455 564.074 315.576L564.081 315.6C564.307 316.577 564.426 317.595 564.426 318.641C564.426 319.212 564.39 319.777 564.32 320.328C564.305 320.451 564.289 320.572 564.271 320.693ZM564.634 315.479C564.607 315.358 564.576 315.24 564.544 315.121C564.417 314.623 564.262 314.137 564.081 313.662C563.922 313.241 563.743 312.831 563.543 312.43C563.489 312.318 563.433 312.208 563.375 312.1C562.47 310.388 561.223 308.885 559.724 307.684C559.628 307.605 559.532 307.529 559.433 307.455C557.151 305.719 554.322 304.663 551.255 304.598C551.152 304.594 551.051 304.594 550.948 304.594H550.886C549.277 304.6 547.732 304.881 546.294 305.387C546.177 305.427 546.063 305.47 545.949 305.515C544.968 305.889 544.041 306.371 543.178 306.947C543.075 307.014 542.974 307.083 542.874 307.155C541.604 308.049 540.488 309.149 539.577 310.406C539.198 310.926 538.855 311.473 538.553 312.044C537.894 313.272 537.415 314.612 537.151 316.024C537.126 316.145 537.104 316.268 537.086 316.389C536.965 317.122 536.904 317.875 536.904 318.641C536.904 318.704 536.904 318.769 536.907 318.831C536.913 319.392 536.954 319.945 537.025 320.487C537.303 322.605 538.056 324.574 539.171 326.289C539.238 326.392 539.305 326.492 539.377 326.593C540.428 328.122 541.774 329.43 543.333 330.441C543.436 330.508 543.541 330.573 543.646 330.636C544.258 331.012 544.898 331.339 545.568 331.619C545.682 331.666 545.797 331.711 545.913 331.756C547.477 332.359 549.174 332.69 550.948 332.69C551.137 332.69 551.322 332.686 551.508 332.679C551.632 332.675 551.755 332.668 551.878 332.659C553.282 332.567 554.631 332.267 555.894 331.79C556.01 331.747 556.125 331.702 556.239 331.655C557.014 331.339 557.755 330.956 558.454 330.51C558.557 330.445 558.66 330.378 558.763 330.308C559.677 329.695 560.517 328.975 561.259 328.169C561.344 328.079 561.427 327.987 561.507 327.895C562.461 326.808 563.248 325.574 563.83 324.232C563.881 324.12 563.928 324.008 563.973 323.893C564.011 323.804 564.047 323.712 564.081 323.62C564.426 322.712 564.679 321.762 564.831 320.776C564.849 320.655 564.867 320.532 564.883 320.411C564.954 319.831 564.992 319.239 564.992 318.641C564.992 317.554 564.869 316.494 564.634 315.479Z" fill="#B84C42"/>
<path d="M499.373 318.426L503.982 305.58L503.635 305.454L499.026 318.3L499.373 318.426Z" fill="#1B3A4B"/>
<path d="M512.091 324.341L512.237 324.003L499.198 318.399L490.626 306.149L490.326 306.362L498.956 318.697L499.006 318.717L512.091 324.341Z" fill="#1B3A4B"/>
<path d="M504.249 332.713L504.598 332.596C504.504 332.318 499.465 319.047 499.25 318.482L499.12 318.137L490.996 330.987L491.307 331.185L499.037 318.959C500.883 323.819 504.177 332.502 504.249 332.713Z" fill="#1B3A4B"/>
<path d="M499.109 317.807L513.578 315.318L513.515 314.955L499.046 317.444L499.109 317.807Z" fill="#1B3A4B"/>
<path d="M497.982 317.592L498.331 317.476L494.091 304.753L493.742 304.869L497.982 317.592Z" fill="#1B3A4B"/>
<path d="M499.106 318.74L499.16 318.713L512.431 311.982L512.266 311.652L499.048 318.356L484.823 315.97L484.762 316.333L499.106 318.74Z" fill="#1B3A4B"/>
<path d="M493.722 332.251C493.802 332.02 497.207 323.638 499.113 318.948L506.48 330.539L506.789 330.342L499.041 318.148L498.907 318.477C498.685 319.024 493.466 331.857 493.372 332.135L493.722 332.251Z" fill="#1B3A4B"/>
<path d="M513.336 320.85L513.39 320.485L499.104 318.365L499.05 318.731L513.336 320.85Z" fill="#1B3A4B"/>
<path d="M499.953 316.64L507.88 307.513L507.602 307.271L499.675 316.398L499.953 316.64Z" fill="#1B3A4B"/>
<path d="M499.539 332.946L499.906 332.914L498.799 319.546L498.432 319.578L499.539 332.946Z" fill="#1B3A4B"/>
<path d="M487.201 326.721L499.828 317.962L499.617 317.66L486.991 326.419L487.201 326.721Z" fill="#1B3A4B"/>
<path d="M509.544 328.451L509.806 328.191L499.261 317.55V303.704H498.894V317.702L509.544 328.451Z" fill="#1B3A4B"/>
<path d="M501.796 318.549C501.796 317.045 500.578 315.829 499.077 315.829C497.576 315.829 496.358 317.045 496.358 318.549C496.358 320.05 497.576 321.267 499.077 321.267C500.578 321.267 501.796 320.05 501.796 318.549Z" fill="#2C3A64"/>
<path d="M512.631 320.745C512.46 321.809 512.165 322.833 511.762 323.799C511.717 323.913 511.668 324.025 511.616 324.138C511.034 325.442 510.254 326.64 509.311 327.691C509.231 327.783 509.148 327.875 509.063 327.965C508.326 328.749 507.497 329.446 506.594 330.035C506.491 330.105 506.39 330.17 506.285 330.235C505.602 330.658 504.876 331.023 504.119 331.326C504.007 331.371 503.893 331.413 503.776 331.456C502.542 331.908 501.223 332.186 499.852 332.262C499.729 332.269 499.606 332.276 499.483 332.278C499.348 332.283 499.214 332.285 499.077 332.285C497.359 332.285 495.664 331.964 494.082 331.346C493.968 331.301 493.854 331.256 493.742 331.207C493.189 330.974 492.651 330.705 492.131 330.4C492.051 330.353 491.972 330.306 491.894 330.255C491.789 330.192 491.686 330.127 491.583 330.058L491.556 330.04C490.062 329.063 488.771 327.799 487.764 326.331C487.69 326.23 487.62 326.127 487.557 326.024C487.43 325.836 487.313 325.643 487.199 325.448C485.985 323.362 485.344 320.976 485.344 318.547C485.344 317.837 485.398 317.14 485.503 316.459C485.521 316.335 485.542 316.214 485.564 316.093C486.209 312.533 488.229 309.445 491.054 307.404C491.155 307.332 491.253 307.263 491.356 307.193C491.421 307.148 491.488 307.104 491.556 307.061C492.333 306.548 493.164 306.115 494.04 305.768C494.154 305.723 494.27 305.678 494.385 305.636C495.793 305.123 497.312 304.834 498.891 304.813C498.954 304.811 499.014 304.811 499.077 304.811C499.138 304.811 499.2 304.811 499.261 304.813C500.638 304.831 501.967 305.053 503.219 305.45C503.344 305.488 503.467 305.531 503.591 305.573C503.707 305.613 503.823 305.656 503.938 305.701C504.379 305.867 504.809 306.057 505.226 306.265C505.969 306.642 506.675 307.081 507.333 307.579C507.432 307.652 507.528 307.729 507.625 307.805C509.112 308.992 510.346 310.478 511.237 312.172C511.296 312.282 511.352 312.392 511.403 312.504C511.818 313.342 512.147 314.227 512.382 315.15C512.413 315.269 512.443 315.387 512.469 315.508C512.691 316.485 512.808 317.503 512.808 318.547C512.808 319.168 512.765 319.779 512.684 320.38C512.669 320.503 512.651 320.624 512.631 320.745ZM507.409 304.955C506.995 304.697 506.565 304.459 506.126 304.244C505.456 303.91 504.757 303.624 504.036 303.388C502.475 302.875 500.809 302.597 499.077 302.597C496.698 302.597 494.441 303.122 492.411 304.061C492.122 304.193 491.836 304.336 491.556 304.486C486.547 307.18 483.134 312.472 483.134 318.547C483.134 321.368 483.877 324.138 485.288 326.562C486.668 328.933 488.646 330.918 491.009 332.307C491.188 332.413 491.372 332.516 491.556 332.612C493.287 333.542 495.18 334.138 497.131 334.375C497.149 334.38 497.167 334.382 497.187 334.382C497.812 334.458 498.443 334.496 499.077 334.496C499.722 334.496 500.361 334.458 500.986 334.382L501.044 334.375C508.91 333.403 515.021 326.676 515.021 318.547C515.021 312.806 511.972 307.762 507.409 304.955Z" fill="#1D2A4C"/>
<path d="M512.277 320.693C512.115 321.729 511.84 322.726 511.459 323.669C511.412 323.783 511.365 323.895 511.316 324.008C510.763 325.282 510.014 326.457 509.114 327.492C509.033 327.584 508.95 327.676 508.865 327.767C508.151 328.545 507.344 329.24 506.464 329.831C506.361 329.901 506.258 329.968 506.155 330.033C505.49 330.456 504.784 330.822 504.045 331.124C503.931 331.171 503.817 331.216 503.7 331.259C502.486 331.718 501.189 332.007 499.839 332.092C499.718 332.103 499.592 332.11 499.469 332.112C499.299 332.121 499.126 332.123 498.954 332.123C497.254 332.123 495.628 331.808 494.129 331.229C494.015 331.187 493.901 331.14 493.786 331.093C493.15 330.828 492.537 330.515 491.954 330.158C491.849 330.093 491.746 330.028 491.643 329.961C491.614 329.943 491.585 329.925 491.556 329.903C490.097 328.944 488.839 327.707 487.848 326.271C487.779 326.17 487.71 326.067 487.645 325.964C486.274 323.853 485.476 321.339 485.476 318.641C485.476 317.906 485.535 317.187 485.649 316.483C485.669 316.36 485.689 316.239 485.714 316.118C486.379 312.62 488.4 309.597 491.206 307.621C491.307 307.547 491.408 307.478 491.508 307.41L491.556 307.381C492.36 306.848 493.222 306.402 494.134 306.052C494.248 306.008 494.364 305.965 494.481 305.925C495.863 305.436 497.346 305.167 498.891 305.161H498.954C499.057 305.161 499.16 305.163 499.261 305.165C500.589 305.194 501.87 305.416 503.077 305.808C503.207 305.849 503.333 305.891 503.46 305.936C503.577 305.976 503.691 306.019 503.805 306.066C504.235 306.232 504.657 306.42 505.064 306.628C505.77 306.989 506.44 307.408 507.067 307.885C507.165 307.957 507.262 308.033 507.358 308.112C508.803 309.266 510.003 310.711 510.874 312.356C510.933 312.465 510.989 312.575 511.042 312.685C511.439 313.487 511.759 314.334 511.99 315.217C512.021 315.336 512.053 315.455 512.08 315.576C512.31 316.559 512.431 317.586 512.431 318.641C512.431 319.212 512.395 319.777 512.326 320.328C512.31 320.451 512.295 320.572 512.277 320.693ZM512.64 315.479C512.613 315.358 512.581 315.24 512.55 315.121C512.308 314.182 511.972 313.281 511.549 312.43C511.495 312.318 511.439 312.208 511.381 312.1C510.476 310.388 509.228 308.885 507.73 307.684C507.633 307.605 507.537 307.529 507.439 307.455C506.769 306.944 506.052 306.494 505.295 306.109C504.652 305.781 503.982 305.504 503.288 305.277H503.286C502.764 305.107 502.231 304.968 501.684 304.863C500.898 304.704 500.087 304.614 499.261 304.598C499.158 304.594 499.057 304.594 498.954 304.594H498.891C498.515 304.596 498.141 304.612 497.771 304.643C496.566 304.744 495.401 304.997 494.302 305.387C494.185 305.427 494.069 305.47 493.954 305.515C493.112 305.835 492.31 306.234 491.556 306.707C491.43 306.783 491.307 306.864 491.184 306.947C491.081 307.014 490.98 307.083 490.879 307.155C487.952 309.219 485.844 312.374 485.156 316.024C485.132 316.145 485.109 316.268 485.091 316.389C484.97 317.122 484.91 317.875 484.91 318.641C484.91 321.46 485.743 324.086 487.177 326.289C487.244 326.392 487.313 326.495 487.383 326.596C488.435 328.124 489.782 329.432 491.34 330.441C491.412 330.488 491.484 330.535 491.556 330.577C491.587 330.6 491.62 330.62 491.652 330.638C492.263 331.012 492.906 331.341 493.576 331.619C493.688 331.666 493.802 331.711 493.916 331.756C495.48 332.359 497.18 332.69 498.954 332.69C499.142 332.69 499.33 332.686 499.516 332.679C499.639 332.675 499.762 332.668 499.886 332.659C501.29 332.567 502.638 332.267 503.9 331.79C504.016 331.747 504.13 331.702 504.244 331.655C505.019 331.339 505.761 330.956 506.46 330.51C506.563 330.445 506.666 330.378 506.769 330.308C507.683 329.695 508.523 328.975 509.264 328.169C509.349 328.079 509.432 327.987 509.513 327.895C510.467 326.808 511.253 325.574 511.838 324.232C511.887 324.12 511.934 324.008 511.979 323.893C512.38 322.905 512.671 321.861 512.837 320.776C512.855 320.655 512.872 320.532 512.888 320.411C512.96 319.831 512.998 319.239 512.998 318.641C512.998 317.554 512.875 316.494 512.64 315.479Z" fill="#B84C42"/>
<path d="M540.351 281.075C540.351 281.075 543.722 286.424 539.556 289.364C535.39 292.306 521.359 293.713 522.047 294.282C524.15 296.028 526.063 298.712 525.962 314.782L524.923 315.318C524.923 315.318 514.918 293.545 515.587 290.95C516.033 289.234 530.626 279.937 540.351 281.075Z" fill="#FFB27D"/>
<path d="M532.261 292.203C532.261 292.203 540.764 290.795 541.639 287.793C542.296 285.55 542.488 284.636 538.636 277.389C538.636 277.389 537.028 280.448 528.623 279.74C528.623 279.74 528.666 280.136 528.666 280.674C528.655 281.564 528.516 282.832 527.819 283.197L527.777 283.217C526.67 283.721 524.959 284.741 524.701 284.837C524.69 284.837 529.858 285.828 532.261 292.203Z" fill="#35488B"/>
<path d="M527.819 283.197C531.564 282.09 535.222 282.207 537.379 280.192C534.203 279.377 530.384 280.674 528.666 280.674C528.655 281.564 528.516 282.832 527.819 283.197Z" fill="#2C3A64"/>
<path d="M527.371 315.562L526.495 315.983C526.18 316.078 525.922 316.098 525.602 316.203C525.116 316.362 524.997 316.651 524.975 316.714L524.97 316.725L521.25 318.513C521.093 318.426 521.032 318.072 521.012 317.803C520.997 317.619 521.068 317.44 521.207 317.317C521.548 317.012 522.276 316.537 522.679 315.549C522.905 314.995 523.973 313.288 523.973 313.288L523.98 313.281C524.016 313.265 524.2 313.239 525.181 313.492C525.687 313.622 525.949 312.593 525.949 312.593C525.949 312.593 526.112 312.634 526.283 312.77C526.419 312.878 526.563 313.046 526.637 313.304C526.742 313.664 527.221 314.202 527.566 314.556C527.777 314.769 527.936 314.915 527.936 314.915C527.936 314.915 528.079 315.105 527.371 315.562Z" fill="#B84C42"/>
<path d="M526.283 312.77C526.144 313.017 525.844 313.521 525.568 313.7C525.199 313.94 523.973 313.288 523.973 313.288L523.98 313.281C524.016 313.266 524.2 313.239 525.181 313.492C525.687 313.622 525.949 312.593 525.949 312.593C525.949 312.593 526.113 312.634 526.283 312.77Z" fill="#AA3E39"/>
<path d="M527.371 315.562L526.495 315.983C526.18 316.078 525.922 316.098 525.602 316.203C525.116 316.362 524.997 316.651 524.975 316.714L524.97 316.725L521.25 318.513C521.093 318.426 521.032 318.072 521.012 317.803C521.077 317.648 521.366 318.17 521.469 318.224C521.572 318.28 524.52 316.797 524.632 316.591C524.744 316.382 525.154 315.916 525.953 315.744C526.65 315.591 527.387 314.767 527.566 314.556C527.777 314.769 527.936 314.915 527.936 314.915C527.936 314.915 528.079 315.105 527.371 315.562Z" fill="#AA3E39"/>
<path d="M506.222 297.887C506.46 297.291 507.015 296.919 507.616 296.881C514.499 281.064 514.573 280.938 514.676 280.768L515.673 282.742C515.724 282.655 500.105 317.785 500.105 317.785L498.569 317.16L506.222 297.887Z" fill="#35488B"/>
<path d="M522.636 283.125C522.963 282.025 522.336 280.869 521.236 280.542C520.137 280.215 518.981 280.842 518.654 281.942C518.327 283.04 518.954 284.199 520.054 284.526C521.153 284.851 522.309 284.226 522.636 283.125Z" fill="#1B3A4B"/>
<path d="M509.777 279.489C510.104 278.388 509.477 277.232 508.377 276.905C507.277 276.578 506.122 277.205 505.795 278.303C505.468 279.404 506.095 280.562 507.194 280.889C508.294 281.214 509.45 280.589 509.777 279.489Z" fill="#1B3A4B"/>
<path d="M508.223 280.885L520.316 283.921L520.526 281.478L508.431 278.442L508.223 280.885Z" fill="#1B3A4B"/>
<path d="M520.042 278.474C520.042 278.474 518.902 279.22 518.098 279.186C517.294 279.153 516.27 279.489 516.27 279.489C516.27 279.489 515.198 279.807 515.097 281.082C515.097 281.082 515.101 281.452 516.79 280.932C517.16 280.817 518.047 281.033 518.349 280.932C518.651 280.831 519.568 279.838 520.367 279.865L520.042 278.474Z" fill="#FFB27D"/>
<path d="M513.95 277.031C513.95 277.031 512.812 277.777 512.006 277.743C511.202 277.71 510.178 278.046 510.178 278.046C510.178 278.046 509.105 278.364 509.004 279.639C509.004 279.639 509.029 280.163 510.698 279.489C511.157 279.303 511.956 279.59 512.259 279.489C512.559 279.388 513.666 278.539 514.432 278.328L513.95 277.031Z" fill="#E8945B"/>
<path d="M528.296 246.445C529.958 246.745 530.729 247.643 531.784 250.205C532.884 252.878 531.551 255.338 530.492 255.018C529.813 254.811 529.573 255.977 529.573 255.977L523.104 250.323C523.104 250.323 524.047 246.171 528.296 246.445Z" fill="#2C3A64"/>
<path d="M524.509 261.861C524.509 261.861 526.762 263.129 526.498 266.342C526.231 269.556 523.284 274.62 521.044 275.877C519.27 276.872 514.136 278.427 514.136 278.427L513.95 277.031C513.95 277.031 518.127 274.304 519.032 273.371C520.97 271.373 522.815 261.083 524.509 261.861Z" fill="#E8945B"/>
<path d="M524.733 269.085C524.836 269.809 525.026 270.432 525.261 271.025C525.458 271.523 525.685 271.996 525.918 272.489C526.603 273.936 528.216 274.651 528.27 277.436C528.29 278.395 536.391 274.342 536.438 270.987L536.441 270.96C536.456 270.799 536.476 270.364 536.503 269.788C536.564 268.379 536.642 266.134 536.671 264.996C536.671 264.969 536.671 264.944 536.673 264.919C536.685 264.431 536.7 264.079 536.718 263.987C535.634 259.369 533.139 259.351 532.288 259.365C532.174 259.367 532.059 259.369 531.947 259.376C531.477 259.396 531.036 259.174 530.765 258.791C530.288 258.112 529.752 256.947 529.425 255.354L529.233 255.437L525.96 256.828C525.96 256.828 526.263 257.886 526.478 258.896C526.569 259.329 526.643 259.752 526.673 260.082C526.699 260.4 526.516 260.696 526.22 260.81V260.812C526.162 260.942 524.211 265.412 524.733 269.085Z" fill="#FFB27D"/>
<path d="M525.261 271.025C525.459 271.523 525.685 271.996 525.918 272.489C526.603 273.936 528.216 274.651 528.27 277.436C528.319 277.441 528.37 277.445 528.42 277.45C534.402 277.918 536.441 270.961 536.441 270.961C536.456 270.799 536.476 270.364 536.503 269.789L525.707 269.804C525.707 269.804 525.485 270.295 525.261 271.025Z" fill="#E8945B"/>
<path d="M523.743 267.729C523.774 267.819 523.808 267.909 523.844 267.998C524.881 270.47 527.172 283.197 527.172 283.197C527.201 283.179 536.535 283.809 540.235 278.702C540.414 279.242 539.538 276.13 538.177 271.949C537.153 268.812 536.631 266.598 536.671 264.996C536.671 264.969 536.671 264.944 536.674 264.919C536.434 264.729 536.203 264.552 535.988 264.382C535.303 263.842 534.79 263.382 534.779 262.815C534.774 262.594 534.79 262.365 534.821 262.139C534.837 262.031 534.853 261.924 534.875 261.816C535.09 260.691 535.601 259.685 535.601 259.685C534.425 259.156 532.288 259.365 532.288 259.365C532.288 259.365 531.486 261.157 529.779 262.226C529.302 262.526 527.595 263.275 526.755 262.495C526.2 261.98 526.184 260.924 526.22 260.812V260.81C524.285 261.487 523.579 262.089 523.579 262.089C524.701 262.878 522.943 265.338 523.743 267.729Z" fill="#739AF0"/>
<path d="M525.96 256.828C525.96 256.828 526.263 257.886 526.478 258.896C528.375 258.444 529.02 256.49 529.23 255.437L525.96 256.828Z" fill="#E8945B"/>
<path d="M525.523 257.919C525.523 257.919 530.057 257.048 529.47 254.231C528.883 251.415 529.074 249.407 526.155 249.844C523.237 250.281 522.898 251.473 522.867 252.461C522.833 253.449 524.33 258.074 525.523 257.919Z" fill="#FFB27D"/>
<path d="M522.672 250.868C523.194 249.873 523.761 249.949 524.11 250.142C526.294 248.266 528.305 249.94 528.305 249.94C529.031 251.899 530.729 252.75 530.729 252.75C530.729 252.75 530.012 253.431 528.012 253.339C527.4 253.313 526.798 253.01 526.251 252.6C527.291 253.729 528.529 254.437 528.529 254.437C526.043 253.864 524.473 250.899 524.312 250.586C524.088 250.89 523.658 251.542 523.602 252.105C523.525 252.869 523.734 254.366 523.293 254.406C523.293 254.406 521.89 252.356 522.672 250.868Z" fill="#2C3A64"/>
<path d="M520.042 278.474L520.367 279.865C520.367 279.865 527.974 278.826 530.46 277.378C532.946 275.931 536.712 267.42 537.01 263.822C537.025 263.631 537.034 263.45 537.039 263.275C537.131 260.169 535.601 259.685 535.601 259.685C534.987 259.405 534.228 260.454 533.421 262.096C531.73 265.536 529.842 271.577 528.72 273.365C527.857 274.738 520.042 278.474 520.042 278.474Z" fill="#FFB27D"/>
<path d="M533.421 262.096C535.507 261.603 537.039 263.275 537.039 263.275C537.131 260.169 535.601 259.685 535.601 259.685C534.987 259.405 534.228 260.454 533.421 262.096Z" fill="#739AF0"/>
<path d="M523.579 262.089C523.579 262.089 522.818 262.797 522.524 264.409C522.524 264.409 523.653 264.415 524.18 265.518C524.18 265.518 524.594 262.264 523.579 262.089Z" fill="#739AF0"/>
<path d="M527.983 247.453C527.983 247.453 530.489 244.347 533.65 245.219C536.81 246.091 538.611 249.743 540.078 249.142C542.544 248.134 543.227 251.444 542.244 253.852C541.384 255.957 537.668 256.759 535.417 254.455C533.777 252.775 531.524 245.6 528.747 247.997C525.969 250.397 527.983 247.453 527.983 247.453Z" fill="#2C3A64"/>
<path d="M180.668 295.223L182.785 293.583L178.964 293.581L180.668 295.223Z" fill="#1D3F77"/>
</svg>
